<svg width="80" height="21" viewBox="0 0 80 21" fill="none" xmlns="http://www.w3.org/2000/svg">
<circle cx="9" cy="12" r="6.5" stroke="#76FCB3"/>
<circle opacity="0.5" cx="9" cy="12" r="8.75" stroke="#76FCB3" stroke-width="0.5"/>
<circle cx="9" cy="12" r="4" fill="#76FCB3"/>
<path d="M34.9307 17C34.7987 16.568 34.6487 16.124 34.4807 15.668C34.3247 15.212 34.1687 14.756 34.0127 14.3H29.1527C28.9967 14.756 28.8347 15.212 28.6667 15.668C28.5107 16.124 28.3667 16.568 28.2347 17H25.3187C25.7867 15.656 26.2307 14.414 26.6507 13.274C27.0707 12.134 27.4787 11.06 27.8747 10.052C28.2827 9.044 28.6787 8.09 29.0627 7.19C29.4587 6.278 29.8667 5.39 30.2867 4.526H32.9687C33.3767 5.39 33.7787 6.278 34.1747 7.19C34.5707 8.09 34.9667 9.044 35.3627 10.052C35.7707 11.06 36.1847 12.134 36.6047 13.274C37.0247 14.414 37.4687 15.656 37.9367 17H34.9307ZM31.5647 7.352C31.5047 7.532 31.4147 7.778 31.2947 8.09C31.1747 8.402 31.0367 8.762 30.8807 9.17C30.7247 9.578 30.5507 10.028 30.3587 10.52C30.1787 11.012 29.9927 11.528 29.8007 12.068H33.3467C33.1547 11.528 32.9687 11.012 32.7887 10.52C32.6087 10.028 32.4347 9.578 32.2667 9.17C32.1107 8.762 31.9727 8.402 31.8527 8.09C31.7327 7.778 31.6367 7.532 31.5647 7.352ZM38.728 12.266C38.728 11.582 38.836 10.94 39.052 10.34C39.28 9.728 39.604 9.2 40.024 8.756C40.444 8.3 40.954 7.94 41.554 7.676C42.154 7.412 42.838 7.28 43.606 7.28C44.11 7.28 44.572 7.328 44.992 7.424C45.412 7.508 45.82 7.634 46.216 7.802L45.658 9.944C45.406 9.848 45.13 9.764 44.83 9.692C44.53 9.62 44.194 9.584 43.822 9.584C43.03 9.584 42.436 9.83 42.04 10.322C41.656 10.814 41.464 11.462 41.464 12.266C41.464 13.118 41.644 13.778 42.004 14.246C42.376 14.714 43.018 14.948 43.93 14.948C44.254 14.948 44.602 14.918 44.974 14.858C45.346 14.798 45.688 14.702 46 14.57L46.378 16.766C46.066 16.898 45.676 17.012 45.208 17.108C44.74 17.204 44.224 17.252 43.66 17.252C42.796 17.252 42.052 17.126 41.428 16.874C40.804 16.61 40.288 16.256 39.88 15.812C39.484 15.368 39.19 14.846 38.998 14.246C38.818 13.634 38.728 12.974 38.728 12.266ZM48.088 5.174L50.77 4.742V7.532H53.992V9.764H50.77V13.094C50.77 13.658 50.866 14.108 51.058 14.444C51.262 14.78 51.664 14.948 52.264 14.948C52.552 14.948 52.846 14.924 53.146 14.876C53.458 14.816 53.74 14.738 53.992 14.642L54.37 16.73C54.046 16.862 53.686 16.976 53.29 17.072C52.894 17.168 52.408 17.216 51.832 17.216C51.1 17.216 50.494 17.12 50.014 16.928C49.534 16.724 49.15 16.448 48.862 16.1C48.574 15.74 48.37 15.308 48.25 14.804C48.142 14.3 48.088 13.742 48.088 13.13V5.174ZM58.858 17H56.176V7.532H58.858V17ZM59.11 4.796C59.11 5.288 58.948 5.678 58.624 5.966C58.312 6.242 57.94 6.38 57.508 6.38C57.076 6.38 56.698 6.242 56.374 5.966C56.062 5.678 55.906 5.288 55.906 4.796C55.906 4.304 56.062 3.92 56.374 3.644C56.698 3.356 57.076 3.212 57.508 3.212C57.94 3.212 58.312 3.356 58.624 3.644C58.948 3.92 59.11 4.304 59.11 4.796ZM63.6719 17C63.0599 15.8 62.4359 14.396 61.7999 12.788C61.1759 11.18 60.5819 9.428 60.0179 7.532H62.8619C62.9819 8 63.1199 8.51 63.2759 9.062C63.4439 9.602 63.6119 10.154 63.7799 10.718C63.9599 11.27 64.1339 11.81 64.3019 12.338C64.4819 12.866 64.6559 13.346 64.8239 13.778C64.9799 13.346 65.1479 12.866 65.3279 12.338C65.5079 11.81 65.6819 11.27 65.8499 10.718C66.0299 10.154 66.1979 9.602 66.3539 9.062C66.5219 8.51 66.6659 8 66.7859 7.532H69.5579C68.9939 9.428 68.3939 11.18 67.7579 12.788C67.1339 14.396 66.5159 15.8 65.9039 17H63.6719ZM70.2983 12.338C70.2983 11.498 70.4243 10.766 70.6763 10.142C70.9403 9.506 71.2823 8.978 71.7023 8.558C72.1223 8.138 72.6023 7.82 73.1423 7.604C73.6943 7.388 74.2583 7.28 74.8343 7.28C76.1783 7.28 77.2403 7.694 78.0203 8.522C78.8003 9.338 79.1903 10.544 79.1903 12.14C79.1903 12.296 79.1843 12.47 79.1723 12.662C79.1603 12.842 79.1483 13.004 79.1363 13.148H73.0523C73.1123 13.7 73.3703 14.138 73.8263 14.462C74.2823 14.786 74.8943 14.948 75.6623 14.948C76.1543 14.948 76.6343 14.906 77.1023 14.822C77.5823 14.726 77.9723 14.612 78.2723 14.48L78.6323 16.658C78.4883 16.73 78.2963 16.802 78.0563 16.874C77.8163 16.946 77.5463 17.006 77.2463 17.054C76.9583 17.114 76.6463 17.162 76.3103 17.198C75.9743 17.234 75.6383 17.252 75.3023 17.252C74.4503 17.252 73.7063 17.126 73.0703 16.874C72.4463 16.622 71.9243 16.28 71.5043 15.848C71.0963 15.404 70.7903 14.882 70.5863 14.282C70.3943 13.682 70.2983 13.034 70.2983 12.338ZM76.5983 11.312C76.5863 11.084 76.5443 10.862 76.4723 10.646C76.4123 10.43 76.3103 10.238 76.1663 10.07C76.0343 9.902 75.8603 9.764 75.6443 9.656C75.4403 9.548 75.1823 9.494 74.8703 9.494C74.5703 9.494 74.3123 9.548 74.0963 9.656C73.8803 9.752 73.7003 9.884 73.5563 10.052C73.4123 10.22 73.2983 10.418 73.2143 10.646C73.1423 10.862 73.0883 11.084 73.0523 11.312H76.5983Z" fill="#76FCB3"/>
</svg>
