<svg width="120" height="21" viewBox="0 0 120 21" fill="none" xmlns="http://www.w3.org/2000/svg">
<circle cx="9" cy="12" r="6.5" stroke="#FFE500"/>
<circle opacity="0.5" cx="9" cy="12" r="8.75" stroke="#FFE500" stroke-width="0.5"/>
<circle cx="9" cy="12" r="4" fill="#FFE500"/>
<path d="M29.842 14.858C30.238 14.858 30.562 14.828 30.814 14.768C31.078 14.696 31.288 14.606 31.444 14.498C31.6 14.378 31.708 14.24 31.768 14.084C31.828 13.928 31.858 13.754 31.858 13.562C31.858 13.154 31.666 12.818 31.282 12.554C30.898 12.278 30.238 11.984 29.302 11.672C28.894 11.528 28.486 11.366 28.078 11.186C27.67 10.994 27.304 10.76 26.98 10.484C26.656 10.196 26.392 9.854 26.188 9.458C25.984 9.05 25.882 8.558 25.882 7.982C25.882 7.406 25.99 6.89 26.206 6.434C26.422 5.966 26.728 5.57 27.124 5.246C27.52 4.922 28 4.676 28.564 4.508C29.128 4.328 29.764 4.238 30.472 4.238C31.312 4.238 32.038 4.328 32.65 4.508C33.262 4.688 33.766 4.886 34.162 5.102L33.352 7.316C33.004 7.136 32.614 6.98 32.182 6.848C31.762 6.704 31.252 6.632 30.652 6.632C29.98 6.632 29.494 6.728 29.194 6.92C28.906 7.1 28.762 7.382 28.762 7.766C28.762 7.994 28.816 8.186 28.924 8.342C29.032 8.498 29.182 8.642 29.374 8.774C29.578 8.894 29.806 9.008 30.058 9.116C30.322 9.212 30.61 9.314 30.922 9.422C31.57 9.662 32.134 9.902 32.614 10.142C33.094 10.37 33.49 10.64 33.802 10.952C34.126 11.264 34.366 11.63 34.522 12.05C34.678 12.47 34.756 12.98 34.756 13.58C34.756 14.744 34.348 15.65 33.532 16.298C32.716 16.934 31.486 17.252 29.842 17.252C29.29 17.252 28.792 17.216 28.348 17.144C27.904 17.084 27.508 17.006 27.16 16.91C26.824 16.814 26.53 16.712 26.278 16.604C26.038 16.496 25.834 16.394 25.666 16.298L26.458 14.066C26.83 14.27 27.286 14.456 27.826 14.624C28.378 14.78 29.05 14.858 29.842 14.858ZM44.8186 16.676C44.3626 16.808 43.7746 16.928 43.0546 17.036C42.3346 17.156 41.5786 17.216 40.7866 17.216C39.9826 17.216 39.3106 17.108 38.7706 16.892C38.2426 16.676 37.8226 16.376 37.5106 15.992C37.1986 15.596 36.9766 15.128 36.8446 14.588C36.7126 14.048 36.6466 13.454 36.6466 12.806V7.532H39.3286V12.482C39.3286 13.346 39.4426 13.97 39.6706 14.354C39.8986 14.738 40.3246 14.93 40.9486 14.93C41.1406 14.93 41.3446 14.924 41.5606 14.912C41.7766 14.888 41.9686 14.864 42.1366 14.84V7.532H44.8186V16.676ZM50.0542 15.074C50.5462 15.074 50.8942 15.026 51.0982 14.93C51.3022 14.834 51.4042 14.648 51.4042 14.372C51.4042 14.156 51.2722 13.97 51.0082 13.814C50.7442 13.646 50.3422 13.46 49.8022 13.256C49.3822 13.1 48.9982 12.938 48.6502 12.77C48.3142 12.602 48.0262 12.404 47.7862 12.176C47.5462 11.936 47.3602 11.654 47.2282 11.33C47.0962 11.006 47.0302 10.616 47.0302 10.16C47.0302 9.272 47.3602 8.57 48.0202 8.054C48.6802 7.538 49.5862 7.28 50.7382 7.28C51.3142 7.28 51.8662 7.334 52.3942 7.442C52.9222 7.538 53.3422 7.646 53.6542 7.766L53.1862 9.854C52.8742 9.746 52.5322 9.65 52.1602 9.566C51.8002 9.482 51.3922 9.44 50.9362 9.44C50.0962 9.44 49.6762 9.674 49.6762 10.142C49.6762 10.25 49.6942 10.346 49.7302 10.43C49.7662 10.514 49.8382 10.598 49.9462 10.682C50.0542 10.754 50.1982 10.838 50.3782 10.934C50.5702 11.018 50.8102 11.114 51.0982 11.222C51.6862 11.438 52.1722 11.654 52.5562 11.87C52.9402 12.074 53.2402 12.302 53.4562 12.554C53.6842 12.794 53.8402 13.064 53.9242 13.364C54.0202 13.664 54.0682 14.012 54.0682 14.408C54.0682 15.344 53.7142 16.052 53.0062 16.532C52.3102 17.012 51.3202 17.252 50.0362 17.252C49.1962 17.252 48.4942 17.18 47.9302 17.036C47.3782 16.892 46.9942 16.772 46.7782 16.676L47.2282 14.498C47.6842 14.678 48.1522 14.822 48.6322 14.93C49.1122 15.026 49.5862 15.074 50.0542 15.074ZM62.1385 12.338C62.1385 11.51 61.9525 10.85 61.5805 10.358C61.2085 9.854 60.6565 9.602 59.9245 9.602C59.6845 9.602 59.4625 9.614 59.2585 9.638C59.0545 9.65 58.8865 9.668 58.7545 9.692V14.534C58.9225 14.642 59.1385 14.732 59.4025 14.804C59.6785 14.876 59.9545 14.912 60.2305 14.912C61.5025 14.912 62.1385 14.054 62.1385 12.338ZM64.8745 12.266C64.8745 12.998 64.7845 13.664 64.6045 14.264C64.4245 14.864 64.1605 15.38 63.8125 15.812C63.4645 16.244 63.0325 16.58 62.5165 16.82C62.0005 17.06 61.4065 17.18 60.7345 17.18C60.3625 17.18 60.0145 17.144 59.6905 17.072C59.3665 17 59.0545 16.898 58.7545 16.766V20.33H56.0725V7.856C56.3125 7.784 56.5885 7.718 56.9005 7.658C57.2125 7.586 57.5365 7.526 57.8725 7.478C58.2205 7.43 58.5685 7.394 58.9165 7.37C59.2765 7.334 59.6185 7.316 59.9425 7.316C60.7225 7.316 61.4185 7.436 62.0305 7.676C62.6425 7.904 63.1585 8.234 63.5785 8.666C63.9985 9.086 64.3165 9.602 64.5325 10.214C64.7605 10.826 64.8745 11.51 64.8745 12.266ZM66.4858 12.338C66.4858 11.498 66.6118 10.766 66.8638 10.142C67.1278 9.506 67.4698 8.978 67.8898 8.558C68.3098 8.138 68.7898 7.82 69.3298 7.604C69.8818 7.388 70.4458 7.28 71.0218 7.28C72.3658 7.28 73.4278 7.694 74.2078 8.522C74.9878 9.338 75.3778 10.544 75.3778 12.14C75.3778 12.296 75.3718 12.47 75.3598 12.662C75.3478 12.842 75.3358 13.004 75.3238 13.148H69.2398C69.2998 13.7 69.5578 14.138 70.0138 14.462C70.4698 14.786 71.0818 14.948 71.8498 14.948C72.3418 14.948 72.8218 14.906 73.2898 14.822C73.7698 14.726 74.1598 14.612 74.4598 14.48L74.8198 16.658C74.6758 16.73 74.4838 16.802 74.2438 16.874C74.0038 16.946 73.7338 17.006 73.4338 17.054C73.1458 17.114 72.8338 17.162 72.4978 17.198C72.1618 17.234 71.8258 17.252 71.4898 17.252C70.6378 17.252 69.8938 17.126 69.2578 16.874C68.6338 16.622 68.1118 16.28 67.6918 15.848C67.2838 15.404 66.9778 14.882 66.7738 14.282C66.5818 13.682 66.4858 13.034 66.4858 12.338ZM72.7858 11.312C72.7738 11.084 72.7318 10.862 72.6598 10.646C72.5998 10.43 72.4978 10.238 72.3538 10.07C72.2218 9.902 72.0478 9.764 71.8318 9.656C71.6278 9.548 71.3698 9.494 71.0578 9.494C70.7578 9.494 70.4998 9.548 70.2838 9.656C70.0678 9.752 69.8878 9.884 69.7438 10.052C69.5998 10.22 69.4858 10.418 69.4018 10.646C69.3298 10.862 69.2758 11.084 69.2398 11.312H72.7858ZM77.4475 7.856C77.9035 7.724 78.4915 7.604 79.2115 7.496C79.9315 7.376 80.6875 7.316 81.4795 7.316C82.2835 7.316 82.9495 7.424 83.4775 7.64C84.0175 7.844 84.4435 8.138 84.7555 8.522C85.0675 8.906 85.2895 9.362 85.4215 9.89C85.5535 10.418 85.6195 11.006 85.6195 11.654V17H82.9375V11.978C82.9375 11.114 82.8235 10.502 82.5955 10.142C82.3675 9.782 81.9415 9.602 81.3175 9.602C81.1255 9.602 80.9215 9.614 80.7055 9.638C80.4895 9.65 80.2975 9.668 80.1295 9.692V17H77.4475V7.856ZM90.3331 12.194C90.3331 13.022 90.5191 13.688 90.8911 14.192C91.2631 14.696 91.8151 14.948 92.5471 14.948C92.7871 14.948 93.0091 14.942 93.2131 14.93C93.4171 14.906 93.5851 14.882 93.7171 14.858V9.98C93.5491 9.872 93.3271 9.782 93.0511 9.71C92.7871 9.638 92.5171 9.602 92.2411 9.602C90.9691 9.602 90.3331 10.466 90.3331 12.194ZM96.3991 16.694C96.1591 16.766 95.8831 16.838 95.5711 16.91C95.2591 16.97 94.9291 17.024 94.5811 17.072C94.2451 17.12 93.8971 17.156 93.5371 17.18C93.1891 17.216 92.8531 17.234 92.5291 17.234C91.7491 17.234 91.0531 17.12 90.4411 16.892C89.8291 16.664 89.3131 16.34 88.8931 15.92C88.4731 15.488 88.1491 14.972 87.9211 14.372C87.7051 13.76 87.5971 13.076 87.5971 12.32C87.5971 11.552 87.6931 10.862 87.8851 10.25C88.0771 9.626 88.3531 9.098 88.7131 8.666C89.0731 8.234 89.5111 7.904 90.0271 7.676C90.5551 7.448 91.1551 7.334 91.8271 7.334C92.1991 7.334 92.5291 7.37 92.8171 7.442C93.1171 7.514 93.4171 7.616 93.7171 7.748V3.464L96.3991 3.032V16.694ZM98.4604 12.338C98.4604 11.498 98.5864 10.766 98.8384 10.142C99.1024 9.506 99.4444 8.978 99.8644 8.558C100.284 8.138 100.764 7.82 101.304 7.604C101.856 7.388 102.42 7.28 102.996 7.28C104.34 7.28 105.402 7.694 106.182 8.522C106.962 9.338 107.352 10.544 107.352 12.14C107.352 12.296 107.346 12.47 107.334 12.662C107.322 12.842 107.31 13.004 107.298 13.148H101.214C101.274 13.7 101.532 14.138 101.988 14.462C102.444 14.786 103.056 14.948 103.824 14.948C104.316 14.948 104.796 14.906 105.264 14.822C105.744 14.726 106.134 14.612 106.434 14.48L106.794 16.658C106.65 16.73 106.458 16.802 106.218 16.874C105.978 16.946 105.708 17.006 105.408 17.054C105.12 17.114 104.808 17.162 104.472 17.198C104.136 17.234 103.8 17.252 103.464 17.252C102.612 17.252 101.868 17.126 101.232 16.874C100.608 16.622 100.086 16.28 99.6664 15.848C99.2584 15.404 98.9524 14.882 98.7484 14.282C98.5564 13.682 98.4604 13.034 98.4604 12.338ZM104.76 11.312C104.748 11.084 104.706 10.862 104.634 10.646C104.574 10.43 104.472 10.238 104.328 10.07C104.196 9.902 104.022 9.764 103.806 9.656C103.602 9.548 103.344 9.494 103.032 9.494C102.732 9.494 102.474 9.548 102.258 9.656C102.042 9.752 101.862 9.884 101.718 10.052C101.574 10.22 101.46 10.418 101.376 10.646C101.304 10.862 101.25 11.084 101.214 11.312H104.76ZM111.708 12.194C111.708 13.022 111.894 13.688 112.266 14.192C112.638 14.696 113.19 14.948 113.922 14.948C114.162 14.948 114.384 14.942 114.588 14.93C114.792 14.906 114.96 14.882 115.092 14.858V9.98C114.924 9.872 114.702 9.782 114.426 9.71C114.162 9.638 113.892 9.602 113.616 9.602C112.344 9.602 111.708 10.466 111.708 12.194ZM117.774 16.694C117.534 16.766 117.258 16.838 116.946 16.91C116.634 16.97 116.304 17.024 115.956 17.072C115.62 17.12 115.272 17.156 114.912 17.18C114.564 17.216 114.228 17.234 113.904 17.234C113.124 17.234 112.428 17.12 111.816 16.892C111.204 16.664 110.688 16.34 110.268 15.92C109.848 15.488 109.524 14.972 109.296 14.372C109.08 13.76 108.972 13.076 108.972 12.32C108.972 11.552 109.068 10.862 109.26 10.25C109.452 9.626 109.728 9.098 110.088 8.666C110.448 8.234 110.886 7.904 111.402 7.676C111.93 7.448 112.53 7.334 113.202 7.334C113.574 7.334 113.904 7.37 114.192 7.442C114.492 7.514 114.792 7.616 115.092 7.748V3.464L117.774 3.032V16.694Z" fill="#FFE500"/>
</svg>
