<svg width="124" height="21" viewBox="0 0 124 21" fill="none" xmlns="http://www.w3.org/2000/svg">
<circle cx="9" cy="12" r="6.5" stroke="#FF007A"/>
<circle opacity="0.5" cx="9" cy="12" r="8.75" stroke="#FF007A" stroke-width="0.5"/>
<circle cx="9" cy="12" r="4" fill="#FF007A"/>
<path d="M35.692 4.526V6.92H31.93V17H29.122V6.92H25.36V4.526H35.692ZM35.5131 12.338C35.5131 11.498 35.6391 10.766 35.8911 10.142C36.1551 9.506 36.4971 8.978 36.9171 8.558C37.3371 8.138 37.8171 7.82 38.3571 7.604C38.9091 7.388 39.4731 7.28 40.0491 7.28C41.3931 7.28 42.4551 7.694 43.2351 8.522C44.0151 9.338 44.4051 10.544 44.4051 12.14C44.4051 12.296 44.3991 12.47 44.3871 12.662C44.3751 12.842 44.3631 13.004 44.3511 13.148H38.2671C38.3271 13.7 38.5851 14.138 39.0411 14.462C39.4971 14.786 40.1091 14.948 40.8771 14.948C41.3691 14.948 41.8491 14.906 42.3171 14.822C42.7971 14.726 43.1871 14.612 43.4871 14.48L43.8471 16.658C43.7031 16.73 43.5111 16.802 43.2711 16.874C43.0311 16.946 42.7611 17.006 42.4611 17.054C42.1731 17.114 41.8611 17.162 41.5251 17.198C41.1891 17.234 40.8531 17.252 40.5171 17.252C39.6651 17.252 38.9211 17.126 38.2851 16.874C37.6611 16.622 37.1391 16.28 36.7191 15.848C36.3111 15.404 36.0051 14.882 35.8011 14.282C35.6091 13.682 35.5131 13.034 35.5131 12.338ZM41.8131 11.312C41.8011 11.084 41.7591 10.862 41.6871 10.646C41.6271 10.43 41.5251 10.238 41.3811 10.07C41.2491 9.902 41.0751 9.764 40.8591 9.656C40.6551 9.548 40.3971 9.494 40.0851 9.494C39.7851 9.494 39.5271 9.548 39.3111 9.656C39.0951 9.752 38.9151 9.884 38.7711 10.052C38.6271 10.22 38.5131 10.418 38.4291 10.646C38.3571 10.862 38.3031 11.084 38.2671 11.312H41.8131ZM52.1808 9.908C51.9408 9.848 51.6588 9.788 51.3348 9.728C51.0108 9.656 50.6628 9.62 50.2908 9.62C50.1228 9.62 49.9188 9.638 49.6788 9.674C49.4508 9.698 49.2768 9.728 49.1568 9.764V17H46.4748V8.036C46.9548 7.868 47.5188 7.712 48.1668 7.568C48.8268 7.412 49.5588 7.334 50.3628 7.334C50.5068 7.334 50.6808 7.346 50.8848 7.37C51.0888 7.382 51.2928 7.406 51.4968 7.442C51.7008 7.466 51.9048 7.502 52.1088 7.55C52.3128 7.586 52.4868 7.634 52.6308 7.694L52.1808 9.908ZM59.2706 11.978C59.2706 11.114 59.1566 10.502 58.9286 10.142C58.7126 9.782 58.3346 9.602 57.7946 9.602C57.6266 9.602 57.4526 9.614 57.2726 9.638C57.0926 9.65 56.9186 9.668 56.7506 9.692V17H54.0686V7.856C54.2966 7.796 54.5606 7.736 54.8606 7.676C55.1726 7.604 55.4966 7.544 55.8326 7.496C56.1806 7.436 56.5346 7.394 56.8946 7.37C57.2546 7.334 57.6086 7.316 57.9566 7.316C58.6406 7.316 59.1926 7.406 59.6126 7.586C60.0446 7.754 60.3986 7.958 60.6746 8.198C61.0586 7.922 61.4966 7.706 61.9886 7.55C62.4926 7.394 62.9546 7.316 63.3746 7.316C64.1306 7.316 64.7486 7.424 65.2286 7.64C65.7206 7.844 66.1106 8.138 66.3986 8.522C66.6866 8.906 66.8846 9.362 66.9926 9.89C67.1006 10.418 67.1546 11.006 67.1546 11.654V17H64.4726V11.978C64.4726 11.114 64.3586 10.502 64.1306 10.142C63.9146 9.782 63.5366 9.602 62.9966 9.602C62.8526 9.602 62.6486 9.638 62.3846 9.71C62.1326 9.782 61.9226 9.872 61.7546 9.98C61.8386 10.256 61.8926 10.55 61.9166 10.862C61.9406 11.162 61.9526 11.486 61.9526 11.834V17H59.2706V11.978ZM72.2721 17H69.5901V7.532H72.2721V17ZM72.5241 4.796C72.5241 5.288 72.3621 5.678 72.0381 5.966C71.7261 6.242 71.3541 6.38 70.9221 6.38C70.4901 6.38 70.1121 6.242 69.7881 5.966C69.4761 5.678 69.3201 5.288 69.3201 4.796C69.3201 4.304 69.4761 3.92 69.7881 3.644C70.1121 3.356 70.4901 3.212 70.9221 3.212C71.3541 3.212 71.7261 3.356 72.0381 3.644C72.3621 3.92 72.5241 4.304 72.5241 4.796ZM74.7932 7.856C75.2492 7.724 75.8372 7.604 76.5572 7.496C77.2772 7.376 78.0332 7.316 78.8252 7.316C79.6292 7.316 80.2952 7.424 80.8232 7.64C81.3632 7.844 81.7892 8.138 82.1012 8.522C82.4132 8.906 82.6352 9.362 82.7672 9.89C82.8992 10.418 82.9652 11.006 82.9652 11.654V17H80.2832V11.978C80.2832 11.114 80.1692 10.502 79.9412 10.142C79.7132 9.782 79.2872 9.602 78.6632 9.602C78.4712 9.602 78.2672 9.614 78.0512 9.638C77.8352 9.65 77.6432 9.668 77.4752 9.692V17H74.7932V7.856ZM89.0108 15.128C89.2748 15.128 89.5268 15.122 89.7668 15.11C90.0068 15.098 90.1988 15.08 90.3428 15.056V13.022C90.2348 12.998 90.0728 12.974 89.8568 12.95C89.6408 12.926 89.4428 12.914 89.2628 12.914C89.0108 12.914 88.7708 12.932 88.5428 12.968C88.3268 12.992 88.1348 13.046 87.9668 13.13C87.7988 13.214 87.6668 13.328 87.5708 13.472C87.4748 13.616 87.4268 13.796 87.4268 14.012C87.4268 14.432 87.5648 14.726 87.8408 14.894C88.1288 15.05 88.5188 15.128 89.0108 15.128ZM88.7948 7.28C89.5868 7.28 90.2468 7.37 90.7748 7.55C91.3028 7.73 91.7228 7.988 92.0348 8.324C92.3588 8.66 92.5868 9.068 92.7188 9.548C92.8508 10.028 92.9168 10.562 92.9168 11.15V16.73C92.5328 16.814 91.9988 16.91 91.3148 17.018C90.6308 17.138 89.8028 17.198 88.8308 17.198C88.2188 17.198 87.6608 17.144 87.1568 17.036C86.6648 16.928 86.2388 16.754 85.8788 16.514C85.5188 16.262 85.2428 15.938 85.0508 15.542C84.8588 15.146 84.7628 14.66 84.7628 14.084C84.7628 13.532 84.8708 13.064 85.0868 12.68C85.3148 12.296 85.6148 11.99 85.9868 11.762C86.3588 11.534 86.7848 11.372 87.2648 11.276C87.7448 11.168 88.2428 11.114 88.7588 11.114C89.1068 11.114 89.4128 11.132 89.6768 11.168C89.9528 11.192 90.1748 11.228 90.3428 11.276V11.024C90.3428 10.568 90.2048 10.202 89.9288 9.926C89.6528 9.65 89.1728 9.512 88.4888 9.512C88.0328 9.512 87.5828 9.548 87.1388 9.62C86.6948 9.68 86.3108 9.77 85.9868 9.89L85.6448 7.73C85.8008 7.682 85.9928 7.634 86.2208 7.586C86.4608 7.526 86.7188 7.478 86.9948 7.442C87.2708 7.394 87.5588 7.358 87.8588 7.334C88.1708 7.298 88.4828 7.28 88.7948 7.28ZM95.252 5.174L97.934 4.742V7.532H101.156V9.764H97.934V13.094C97.934 13.658 98.03 14.108 98.222 14.444C98.426 14.78 98.828 14.948 99.428 14.948C99.716 14.948 100.01 14.924 100.31 14.876C100.622 14.816 100.904 14.738 101.156 14.642L101.534 16.73C101.21 16.862 100.85 16.976 100.454 17.072C100.058 17.168 99.572 17.216 98.996 17.216C98.264 17.216 97.658 17.12 97.178 16.928C96.698 16.724 96.314 16.448 96.026 16.1C95.738 15.74 95.534 15.308 95.414 14.804C95.306 14.3 95.252 13.742 95.252 13.13V5.174ZM102.539 12.338C102.539 11.498 102.665 10.766 102.917 10.142C103.181 9.506 103.523 8.978 103.943 8.558C104.363 8.138 104.843 7.82 105.383 7.604C105.935 7.388 106.499 7.28 107.075 7.28C108.419 7.28 109.481 7.694 110.261 8.522C111.041 9.338 111.431 10.544 111.431 12.14C111.431 12.296 111.425 12.47 111.413 12.662C111.401 12.842 111.389 13.004 111.377 13.148H105.293C105.353 13.7 105.611 14.138 106.067 14.462C106.523 14.786 107.135 14.948 107.903 14.948C108.395 14.948 108.875 14.906 109.343 14.822C109.823 14.726 110.213 14.612 110.513 14.48L110.873 16.658C110.729 16.73 110.537 16.802 110.297 16.874C110.057 16.946 109.787 17.006 109.487 17.054C109.199 17.114 108.887 17.162 108.551 17.198C108.215 17.234 107.879 17.252 107.543 17.252C106.691 17.252 105.947 17.126 105.311 16.874C104.687 16.622 104.165 16.28 103.745 15.848C103.337 15.404 103.031 14.882 102.827 14.282C102.635 13.682 102.539 13.034 102.539 12.338ZM108.839 11.312C108.827 11.084 108.785 10.862 108.713 10.646C108.653 10.43 108.551 10.238 108.407 10.07C108.275 9.902 108.101 9.764 107.885 9.656C107.681 9.548 107.423 9.494 107.111 9.494C106.811 9.494 106.553 9.548 106.337 9.656C106.121 9.752 105.941 9.884 105.797 10.052C105.653 10.22 105.539 10.418 105.455 10.646C105.383 10.862 105.329 11.084 105.293 11.312H108.839ZM115.786 12.194C115.786 13.022 115.972 13.688 116.344 14.192C116.716 14.696 117.268 14.948 118 14.948C118.24 14.948 118.462 14.942 118.666 14.93C118.87 14.906 119.038 14.882 119.17 14.858V9.98C119.002 9.872 118.78 9.782 118.504 9.71C118.24 9.638 117.97 9.602 117.694 9.602C116.422 9.602 115.786 10.466 115.786 12.194ZM121.852 16.694C121.612 16.766 121.336 16.838 121.024 16.91C120.712 16.97 120.382 17.024 120.034 17.072C119.698 17.12 119.35 17.156 118.99 17.18C118.642 17.216 118.306 17.234 117.982 17.234C117.202 17.234 116.506 17.12 115.894 16.892C115.282 16.664 114.766 16.34 114.346 15.92C113.926 15.488 113.602 14.972 113.374 14.372C113.158 13.76 113.05 13.076 113.05 12.32C113.05 11.552 113.146 10.862 113.338 10.25C113.53 9.626 113.806 9.098 114.166 8.666C114.526 8.234 114.964 7.904 115.48 7.676C116.008 7.448 116.608 7.334 117.28 7.334C117.652 7.334 117.982 7.37 118.27 7.442C118.57 7.514 118.87 7.616 119.17 7.748V3.464L121.852 3.032V16.694Z" fill="#FF007A"/>
</svg>
